<?xml version="1.0" encoding="UTF-8"?>
<svg width="156px" height="157px" viewBox="0 0 156 157" version="1.1" xmlns="http://www.w3.org/2000/svg" xmlns:xlink="http://www.w3.org/1999/xlink">
    <title>Group 4 Copy</title>
    <g id="Page-1" stroke="none" stroke-width="1" fill="none" fill-rule="evenodd">
        <g id="homepage-Latest-Copy" transform="translate(-849.000000, -100.000000)" fill="#17DA9C">
            <g id="Group-4-Copy" transform="translate(849.000000, 100.000000)">
                <circle id="Oval" cx="2.4600576" cy="2.4600576" r="2.4600576"></circle>
                <circle id="Oval-Copy-10" cx="2.4600576" cy="19.1884493" r="2.4600576"></circle>
                <circle id="Oval-Copy-20" cx="2.4600576" cy="35.916841" r="2.4600576"></circle>
                <circle id="Oval-Copy-30" cx="2.4600576" cy="52.6452326" r="2.4600576"></circle>
                <circle id="Oval-Copy-40" cx="2.4600576" cy="69.3736243" r="2.4600576"></circle>
                <circle id="Oval-Copy-50" cx="2.4600576" cy="86.102016" r="2.4600576"></circle>
                <circle id="Oval-Copy-60" cx="2.4600576" cy="102.830408" r="2.4600576"></circle>
                <circle id="Oval-Copy-70" cx="2.4600576" cy="119.558799" r="2.4600576"></circle>
                <circle id="Oval-Copy-80" cx="2.4600576" cy="136.287191" r="2.4600576"></circle>
                <circle id="Oval-Copy-90" cx="2.4600576" cy="153.999606" r="2.4600576"></circle>
                <circle id="Oval-Copy-4" cx="69.3736243" cy="2.4600576" r="2.4600576"></circle>
                <circle id="Oval-Copy-11" cx="69.3736243" cy="19.1884493" r="2.4600576"></circle>
                <circle id="Oval-Copy-21" cx="69.3736243" cy="35.916841" r="2.4600576"></circle>
                <circle id="Oval-Copy-31" cx="69.3736243" cy="52.6452326" r="2.4600576"></circle>
                <circle id="Oval-Copy-41" cx="69.3736243" cy="69.3736243" r="2.4600576"></circle>
                <circle id="Oval-Copy-51" cx="69.3736243" cy="86.102016" r="2.4600576"></circle>
                <circle id="Oval-Copy-61" cx="69.3736243" cy="102.830408" r="2.4600576"></circle>
                <circle id="Oval-Copy-71" cx="69.3736243" cy="119.558799" r="2.4600576"></circle>
                <circle id="Oval-Copy-81" cx="69.3736243" cy="136.287191" r="2.4600576"></circle>
                <circle id="Oval-Copy-91" cx="69.3736243" cy="153.999606" r="2.4600576"></circle>
                <circle id="Oval-Copy-2" cx="35.916841" cy="2.4600576" r="2.4600576"></circle>
                <circle id="Oval-Copy-12" cx="35.916841" cy="19.1884493" r="2.4600576"></circle>
                <circle id="Oval-Copy-22" cx="35.916841" cy="35.916841" r="2.4600576"></circle>
                <circle id="Oval-Copy-32" cx="35.916841" cy="52.6452326" r="2.4600576"></circle>
                <circle id="Oval-Copy-42" cx="35.916841" cy="69.3736243" r="2.4600576"></circle>
                <circle id="Oval-Copy-52" cx="35.916841" cy="86.102016" r="2.4600576"></circle>
                <circle id="Oval-Copy-62" cx="35.916841" cy="102.830408" r="2.4600576"></circle>
                <circle id="Oval-Copy-72" cx="35.916841" cy="119.558799" r="2.4600576"></circle>
                <circle id="Oval-Copy-82" cx="35.916841" cy="136.287191" r="2.4600576"></circle>
                <circle id="Oval-Copy-92" cx="35.916841" cy="153.999606" r="2.4600576"></circle>
                <circle id="Oval-Copy-5" cx="102.830408" cy="2.4600576" r="2.4600576"></circle>
                <circle id="Oval-Copy-13" cx="102.830408" cy="19.1884493" r="2.4600576"></circle>
                <circle id="Oval-Copy-23" cx="102.830408" cy="35.916841" r="2.4600576"></circle>
                <circle id="Oval-Copy-33" cx="102.830408" cy="52.6452326" r="2.4600576"></circle>
                <circle id="Oval-Copy-43" cx="102.830408" cy="69.3736243" r="2.4600576"></circle>
                <circle id="Oval-Copy-53" cx="102.830408" cy="86.102016" r="2.4600576"></circle>
                <circle id="Oval-Copy-63" cx="102.830408" cy="102.830408" r="2.4600576"></circle>
                <circle id="Oval-Copy-73" cx="102.830408" cy="119.558799" r="2.4600576"></circle>
                <circle id="Oval-Copy-83" cx="102.830408" cy="136.287191" r="2.4600576"></circle>
                <circle id="Oval-Copy-93" cx="102.830408" cy="153.999606" r="2.4600576"></circle>
                <circle id="Oval-Copy-8" cx="136.287191" cy="2.4600576" r="2.4600576"></circle>
                <circle id="Oval-Copy-14" cx="136.287191" cy="19.1884493" r="2.4600576"></circle>
                <circle id="Oval-Copy-24" cx="136.287191" cy="35.916841" r="2.4600576"></circle>
                <circle id="Oval-Copy-34" cx="136.287191" cy="52.6452326" r="2.4600576"></circle>
                <circle id="Oval-Copy-44" cx="136.287191" cy="69.3736243" r="2.4600576"></circle>
                <circle id="Oval-Copy-54" cx="136.287191" cy="86.102016" r="2.4600576"></circle>
                <circle id="Oval-Copy-64" cx="136.287191" cy="102.830408" r="2.4600576"></circle>
                <circle id="Oval-Copy-74" cx="136.287191" cy="119.558799" r="2.4600576"></circle>
                <circle id="Oval-Copy-84" cx="136.287191" cy="136.287191" r="2.4600576"></circle>
                <circle id="Oval-Copy-94" cx="136.287191" cy="153.999606" r="2.4600576"></circle>
                <circle id="Oval-Copy" cx="19.1884493" cy="2.4600576" r="2.4600576"></circle>
                <circle id="Oval-Copy-15" cx="19.1884493" cy="19.1884493" r="2.4600576"></circle>
                <circle id="Oval-Copy-25" cx="19.1884493" cy="35.916841" r="2.4600576"></circle>
                <circle id="Oval-Copy-35" cx="19.1884493" cy="52.6452326" r="2.4600576"></circle>
                <circle id="Oval-Copy-45" cx="19.1884493" cy="69.3736243" r="2.4600576"></circle>
                <circle id="Oval-Copy-55" cx="19.1884493" cy="86.102016" r="2.4600576"></circle>
                <circle id="Oval-Copy-65" cx="19.1884493" cy="102.830408" r="2.4600576"></circle>
                <circle id="Oval-Copy-75" cx="19.1884493" cy="119.558799" r="2.4600576"></circle>
                <circle id="Oval-Copy-85" cx="19.1884493" cy="136.287191" r="2.4600576"></circle>
                <circle id="Oval-Copy-95" cx="19.1884493" cy="153.999606" r="2.4600576"></circle>
                <circle id="Oval-Copy-6" cx="86.102016" cy="2.4600576" r="2.4600576"></circle>
                <circle id="Oval-Copy-16" cx="86.102016" cy="19.1884493" r="2.4600576"></circle>
                <circle id="Oval-Copy-26" cx="86.102016" cy="35.916841" r="2.4600576"></circle>
                <circle id="Oval-Copy-36" cx="86.102016" cy="52.6452326" r="2.4600576"></circle>
                <circle id="Oval-Copy-46" cx="86.102016" cy="69.3736243" r="2.4600576"></circle>
                <circle id="Oval-Copy-56" cx="86.102016" cy="86.102016" r="2.4600576"></circle>
                <circle id="Oval-Copy-66" cx="86.102016" cy="102.830408" r="2.4600576"></circle>
                <circle id="Oval-Copy-76" cx="86.102016" cy="119.558799" r="2.4600576"></circle>
                <circle id="Oval-Copy-86" cx="86.102016" cy="136.287191" r="2.4600576"></circle>
                <circle id="Oval-Copy-96" cx="86.102016" cy="153.999606" r="2.4600576"></circle>
                <circle id="Oval-Copy-3" cx="52.6452326" cy="2.4600576" r="2.4600576"></circle>
                <circle id="Oval-Copy-17" cx="52.6452326" cy="19.1884493" r="2.4600576"></circle>
                <circle id="Oval-Copy-27" cx="52.6452326" cy="35.916841" r="2.4600576"></circle>
                <circle id="Oval-Copy-37" cx="52.6452326" cy="52.6452326" r="2.4600576"></circle>
                <circle id="Oval-Copy-47" cx="52.6452326" cy="69.3736243" r="2.4600576"></circle>
                <circle id="Oval-Copy-57" cx="52.6452326" cy="86.102016" r="2.4600576"></circle>
                <circle id="Oval-Copy-67" cx="52.6452326" cy="102.830408" r="2.4600576"></circle>
                <circle id="Oval-Copy-77" cx="52.6452326" cy="119.558799" r="2.4600576"></circle>
                <circle id="Oval-Copy-87" cx="52.6452326" cy="136.287191" r="2.4600576"></circle>
                <circle id="Oval-Copy-97" cx="52.6452326" cy="153.999606" r="2.4600576"></circle>
                <circle id="Oval-Copy-7" cx="119.558799" cy="2.4600576" r="2.4600576"></circle>
                <circle id="Oval-Copy-18" cx="119.558799" cy="19.1884493" r="2.4600576"></circle>
                <circle id="Oval-Copy-28" cx="119.558799" cy="35.916841" r="2.4600576"></circle>
                <circle id="Oval-Copy-38" cx="119.558799" cy="52.6452326" r="2.4600576"></circle>
                <circle id="Oval-Copy-48" cx="119.558799" cy="69.3736243" r="2.4600576"></circle>
                <circle id="Oval-Copy-58" cx="119.558799" cy="86.102016" r="2.4600576"></circle>
                <circle id="Oval-Copy-68" cx="119.558799" cy="102.830408" r="2.4600576"></circle>
                <circle id="Oval-Copy-78" cx="119.558799" cy="119.558799" r="2.4600576"></circle>
                <circle id="Oval-Copy-88" cx="119.558799" cy="136.287191" r="2.4600576"></circle>
                <circle id="Oval-Copy-98" cx="119.558799" cy="153.999606" r="2.4600576"></circle>
                <circle id="Oval-Copy-9" cx="153.015583" cy="2.4600576" r="2.4600576"></circle>
                <circle id="Oval-Copy-19" cx="153.015583" cy="19.1884493" r="2.4600576"></circle>
                <circle id="Oval-Copy-29" cx="153.015583" cy="35.916841" r="2.4600576"></circle>
                <circle id="Oval-Copy-39" cx="153.015583" cy="52.6452326" r="2.4600576"></circle>
                <circle id="Oval-Copy-49" cx="153.015583" cy="69.3736243" r="2.4600576"></circle>
                <circle id="Oval-Copy-59" cx="153.015583" cy="86.102016" r="2.4600576"></circle>
                <circle id="Oval-Copy-69" cx="153.015583" cy="102.830408" r="2.4600576"></circle>
                <circle id="Oval-Copy-79" cx="153.015583" cy="119.558799" r="2.4600576"></circle>
                <circle id="Oval-Copy-89" cx="153.015583" cy="136.287191" r="2.4600576"></circle>
                <circle id="Oval-Copy-99" cx="153.015583" cy="153.999606" r="2.4600576"></circle>
            </g>
        </g>
    </g>
</svg>